<?xml version="1.0" encoding="UTF-8" standalone="no"?>
<!DOCTYPE svg PUBLIC "-//W3C//DTD SVG 1.1//EN"
 "http://www.w3.org/Graphics/SVG/1.1/DTD/svg11.dtd">
<!-- Generated by graphviz version 2.50.0 (0)
 -->
<!-- Pages: 1 -->
<svg width="689pt" height="232pt"
 viewBox="0.00 0.00 688.63 232.00" xmlns="http://www.w3.org/2000/svg" xmlns:xlink="http://www.w3.org/1999/xlink">
<g id="graph0" class="graph" transform="scale(1 1) rotate(0) translate(4 228)">
<polygon fill="#ffffff" stroke="transparent" points="-4,4 -4,-228 684.63,-228 684.63,4 -4,4"/>
<!-- 133399015216912 -->
<g id="node1" class="node">
<title>133399015216912</title>
<polygon fill="none" stroke="black" points="290,-123.5 290,-148.5 376,-148.5 376,-123.5 290,-123.5"/>
<text text-anchor="start" x="329.5" y="-132.3" font-family="Arial" font-size="14.00">c</text>
<polygon fill="none" stroke="black" points="290,-98.5 290,-123.5 376,-123.5 376,-98.5 290,-98.5"/>
<text text-anchor="start" x="295" y="-107.3" font-family="Arial" font-size="14.00">data: 5.0000</text>
<polygon fill="none" stroke="black" points="290,-73.5 290,-98.5 376,-98.5 376,-73.5 290,-73.5"/>
<text text-anchor="start" x="295" y="-82.3" font-family="Arial" font-size="14.00">grad: 1.0000</text>
</g>
<!-- 133399015216976ReLU -->
<g id="node5" class="node">
<title>133399015216976ReLU</title>
<ellipse fill="#ff9999" stroke="#cc4444" cx="481.31" cy="-111.5" rx="25.13" ry="25.13"/>
<text text-anchor="middle" x="481.31" y="-109" font-family="Arial Bold" font-size="10.00">ReLU</text>
</g>
<!-- 133399015216912&#45;&gt;133399015216976ReLU -->
<g id="edge5" class="edge">
<title>133399015216912&#45;&gt;133399015216976ReLU</title>
<path fill="none" stroke="#666666" stroke-width="1.2" d="M384.04,-111.5C384.04,-111.5 447.61,-111.5 447.61,-111.5"/>
<polygon fill="#666666" stroke="#666666" stroke-width="1.2" points="447.61,-114.3 455.61,-111.5 447.61,-108.7 447.61,-114.3"/>
</g>
<!-- 133399015216912+ -->
<g id="node2" class="node">
<title>133399015216912+</title>
<ellipse fill="#ff9999" stroke="#cc4444" cx="192" cy="-111.5" rx="18" ry="18"/>
<text text-anchor="middle" x="192" y="-109" font-family="Arial Bold" font-size="10.00">+</text>
</g>
<!-- 133399015216912+&#45;&gt;133399015216912 -->
<g id="edge1" class="edge">
<title>133399015216912+&#45;&gt;133399015216912</title>
<path fill="none" stroke="#666666" stroke-width="1.2" d="M210.14,-111.5C210.14,-111.5 273.86,-111.5 273.86,-111.5"/>
<polygon fill="#666666" stroke="#666666" stroke-width="1.2" points="273.86,-114.3 281.86,-111.5 273.86,-108.7 273.86,-114.3"/>
</g>
<!-- 133399015216720 -->
<g id="node3" class="node">
<title>133399015216720</title>
<polygon fill="none" stroke="black" points="8,-194.5 8,-219.5 94,-219.5 94,-194.5 8,-194.5"/>
<text text-anchor="start" x="47" y="-203.3" font-family="Arial" font-size="14.00">b</text>
<polygon fill="none" stroke="black" points="8,-169.5 8,-194.5 94,-194.5 94,-169.5 8,-169.5"/>
<text text-anchor="start" x="13" y="-178.3" font-family="Arial" font-size="14.00">data: 3.0000</text>
<polygon fill="none" stroke="black" points="8,-144.5 8,-169.5 94,-169.5 94,-144.5 8,-144.5"/>
<text text-anchor="start" x="13" y="-153.3" font-family="Arial" font-size="14.00">grad: 1.0000</text>
</g>
<!-- 133399015216720&#45;&gt;133399015216912+ -->
<g id="edge4" class="edge">
<title>133399015216720&#45;&gt;133399015216912+</title>
<path fill="none" stroke="#666666" stroke-width="1.2" d="M102.13,-147C142.7,-147 192.63,-147 192.63,-147 192.63,-147 192.63,-137.67 192.63,-137.67"/>
<polygon fill="#666666" stroke="#666666" stroke-width="1.2" points="195.43,-137.67 192.63,-129.67 189.83,-137.67 195.43,-137.67"/>
</g>
<!-- 133399015216976 -->
<g id="node4" class="node">
<title>133399015216976</title>
<polygon fill="none" stroke="black" points="586.63,-123.5 586.63,-148.5 672.63,-148.5 672.63,-123.5 586.63,-123.5"/>
<text text-anchor="start" x="625.63" y="-132.3" font-family="Arial" font-size="14.00">d</text>
<polygon fill="none" stroke="black" points="586.63,-98.5 586.63,-123.5 672.63,-123.5 672.63,-98.5 586.63,-98.5"/>
<text text-anchor="start" x="591.63" y="-107.3" font-family="Arial" font-size="14.00">data: 5.0000</text>
<polygon fill="none" stroke="black" points="586.63,-73.5 586.63,-98.5 672.63,-98.5 672.63,-73.5 586.63,-73.5"/>
<text text-anchor="start" x="591.63" y="-82.3" font-family="Arial" font-size="14.00">grad: 1.0000</text>
</g>
<!-- 133399015216976ReLU&#45;&gt;133399015216976 -->
<g id="edge2" class="edge">
<title>133399015216976ReLU&#45;&gt;133399015216976</title>
<path fill="none" stroke="#666666" stroke-width="1.2" d="M506.81,-111.5C506.81,-111.5 570.38,-111.5 570.38,-111.5"/>
<polygon fill="#666666" stroke="#666666" stroke-width="1.2" points="570.38,-114.3 578.38,-111.5 570.38,-108.7 570.38,-114.3"/>
</g>
<!-- 133399015216784 -->
<g id="node6" class="node">
<title>133399015216784</title>
<polygon fill="none" stroke="black" points="8,-53.5 8,-78.5 94,-78.5 94,-53.5 8,-53.5"/>
<text text-anchor="start" x="47" y="-62.3" font-family="Arial" font-size="14.00">a</text>
<polygon fill="none" stroke="black" points="8,-28.5 8,-53.5 94,-53.5 94,-28.5 8,-28.5"/>
<text text-anchor="start" x="13" y="-37.3" font-family="Arial" font-size="14.00">data: 2.0000</text>
<polygon fill="none" stroke="black" points="8,-3.5 8,-28.5 94,-28.5 94,-3.5 8,-3.5"/>
<text text-anchor="start" x="13" y="-12.3" font-family="Arial" font-size="14.00">grad: 1.0000</text>
</g>
<!-- 133399015216784&#45;&gt;133399015216912+ -->
<g id="edge3" class="edge">
<title>133399015216784&#45;&gt;133399015216912+</title>
<path fill="none" stroke="#666666" stroke-width="1.2" d="M102.13,-76.5C142.7,-76.5 192.63,-76.5 192.63,-76.5 192.63,-76.5 192.63,-85.18 192.63,-85.18"/>
<polygon fill="#666666" stroke="#666666" stroke-width="1.2" points="189.83,-85.18 192.63,-93.18 195.43,-85.18 189.83,-85.18"/>
</g>
</g>
</svg>
