<?xml version="1.0" encoding="UTF-8" standalone="no"?>
<!DOCTYPE svg PUBLIC "-//W3C//DTD SVG 1.1//EN"
 "http://www.w3.org/Graphics/SVG/1.1/DTD/svg11.dtd">
<!-- Generated by graphviz version 2.50.0 (0)
 -->
<!-- Pages: 1 -->
<svg width="2779pt" height="545pt"
 viewBox="0.00 0.00 2779.00 544.50" xmlns="http://www.w3.org/2000/svg" xmlns:xlink="http://www.w3.org/1999/xlink">
<g id="graph0" class="graph" transform="scale(1 1) rotate(0) translate(4 540.5)">
<polygon fill="#ffffff" stroke="transparent" points="-4,4 -4,-540.5 2775,-540.5 2775,4 -4,4"/>
<!-- 133209877287440 -->
<g id="node1" class="node">
<title>133209877287440</title>
<polygon fill="none" stroke="black" points="2625,-237 2625,-262 2763,-262 2763,-237 2625,-237"/>
<text text-anchor="start" x="2690" y="-245.8" font-family="Arial" font-size="14.00">h</text>
<polygon fill="none" stroke="black" points="2625,-212 2625,-237 2763,-237 2763,-212 2625,-212"/>
<text text-anchor="start" x="2630" y="-220.8" font-family="Arial" font-size="14.00">data: 12550047.0000</text>
<polygon fill="none" stroke="black" points="2625,-187 2625,-212 2763,-212 2763,-187 2625,-187"/>
<text text-anchor="start" x="2656" y="-195.8" font-family="Arial" font-size="14.00">grad: 1.0000</text>
</g>
<!-- 133209877287440+ -->
<g id="node2" class="node">
<title>133209877287440+</title>
<ellipse fill="#ff9999" stroke="#cc4444" cx="2527" cy="-225" rx="18" ry="18"/>
<text text-anchor="middle" x="2527" y="-222.5" font-family="Arial Bold" font-size="10.00">+</text>
</g>
<!-- 133209877287440+&#45;&gt;133209877287440 -->
<g id="edge1" class="edge">
<title>133209877287440+&#45;&gt;133209877287440</title>
<path fill="none" stroke="#666666" stroke-width="1.2" d="M2545.19,-225C2545.19,-225 2608.73,-225 2608.73,-225"/>
<polygon fill="#666666" stroke="#666666" stroke-width="1.2" points="2608.73,-227.8 2616.73,-225 2608.73,-222.2 2608.73,-227.8"/>
</g>
<!-- 133209880463248 -->
<g id="node3" class="node">
<title>133209880463248</title>
<polygon fill="none" stroke="black" points="1013.5,-369 1013.5,-394 1144.5,-394 1144.5,-369 1013.5,-369"/>
<text text-anchor="start" x="1075" y="-377.8" font-family="Arial" font-size="14.00">e</text>
<polygon fill="none" stroke="black" points="1013.5,-344 1013.5,-369 1144.5,-369 1144.5,-344 1013.5,-344"/>
<text text-anchor="start" x="1037.5" y="-352.8" font-family="Arial" font-size="14.00">data: 50.0000</text>
<polygon fill="none" stroke="black" points="1013.5,-319 1013.5,-344 1144.5,-344 1144.5,-319 1013.5,-319"/>
<text text-anchor="start" x="1018.5" y="-327.8" font-family="Arial" font-size="14.00">grad: 1002000.0000</text>
</g>
<!-- 133209880463504**2 -->
<g id="node11" class="node">
<title>133209880463504**2</title>
<ellipse fill="#ff9999" stroke="#cc4444" cx="1242" cy="-357" rx="18" ry="18"/>
<text text-anchor="middle" x="1242" y="-354.5" font-family="Arial Bold" font-size="10.00">**2</text>
</g>
<!-- 133209880463248&#45;&gt;133209880463504**2 -->
<g id="edge14" class="edge">
<title>133209880463248&#45;&gt;133209880463504**2</title>
<path fill="none" stroke="#666666" stroke-width="1.2" d="M1152.12,-357C1152.12,-357 1215.68,-357 1215.68,-357"/>
<polygon fill="#666666" stroke="#666666" stroke-width="1.2" points="1215.68,-359.8 1223.68,-357 1215.68,-354.2 1215.68,-359.8"/>
</g>
<!-- 133209880463248* -->
<g id="node4" class="node">
<title>133209880463248*</title>
<ellipse fill="#ff9999" stroke="#cc4444" cx="915" cy="-357" rx="18" ry="18"/>
<text text-anchor="middle" x="915" y="-354.5" font-family="Arial Bold" font-size="10.00">*</text>
</g>
<!-- 133209880463248*&#45;&gt;133209880463248 -->
<g id="edge2" class="edge">
<title>133209880463248*&#45;&gt;133209880463248</title>
<path fill="none" stroke="#666666" stroke-width="1.2" d="M933.12,-357C933.12,-357 996.65,-357 996.65,-357"/>
<polygon fill="#666666" stroke="#666666" stroke-width="1.2" points="996.65,-359.8 1004.65,-357 996.65,-354.2 996.65,-359.8"/>
</g>
<!-- 133209880419344 -->
<g id="node5" class="node">
<title>133209880419344</title>
<polygon fill="none" stroke="black" points="8.5,-507 8.5,-532 147.5,-532 147.5,-507 8.5,-507"/>
<text text-anchor="start" x="74" y="-515.8" font-family="Arial" font-size="14.00">a</text>
<polygon fill="none" stroke="black" points="8.5,-482 8.5,-507 147.5,-507 147.5,-482 8.5,-482"/>
<text text-anchor="start" x="40" y="-490.8" font-family="Arial" font-size="14.00">data: 2.0000</text>
<polygon fill="none" stroke="black" points="8.5,-457 8.5,-482 147.5,-482 147.5,-457 8.5,-457"/>
<text text-anchor="start" x="13.5" y="-465.8" font-family="Arial" font-size="14.00">grad: 20040000.0000</text>
</g>
<!-- 133209880419472+ -->
<g id="node13" class="node">
<title>133209880419472+</title>
<ellipse fill="#ff9999" stroke="#cc4444" cx="245" cy="-424" rx="18" ry="18"/>
<text text-anchor="middle" x="245" y="-421.5" font-family="Arial Bold" font-size="10.00">+</text>
</g>
<!-- 133209880419344&#45;&gt;133209880419472+ -->
<g id="edge11" class="edge">
<title>133209880419344&#45;&gt;133209880419472+</title>
<path fill="none" stroke="#666666" stroke-width="1.2" d="M155.37,-459.5C199.11,-459.5 245,-459.5 245,-459.5 245,-459.5 245,-450.17 245,-450.17"/>
<polygon fill="#666666" stroke="#666666" stroke-width="1.2" points="247.8,-450.17 245,-442.17 242.2,-450.17 247.8,-450.17"/>
</g>
<!-- 133209880419408 -->
<g id="node6" class="node">
<title>133209880419408</title>
<polygon fill="none" stroke="black" points="682.5,-436 682.5,-461 813.5,-461 813.5,-436 682.5,-436"/>
<text text-anchor="start" x="744" y="-444.8" font-family="Arial" font-size="14.00">d</text>
<polygon fill="none" stroke="black" points="682.5,-411 682.5,-436 813.5,-436 813.5,-411 682.5,-411"/>
<text text-anchor="start" x="706.5" y="-419.8" font-family="Arial" font-size="14.00">data: 25.0000</text>
<polygon fill="none" stroke="black" points="682.5,-386 682.5,-411 813.5,-411 813.5,-386 682.5,-386"/>
<text text-anchor="start" x="687.5" y="-394.8" font-family="Arial" font-size="14.00">grad: 2004000.0000</text>
</g>
<!-- 133209880419408&#45;&gt;133209880463248* -->
<g id="edge22" class="edge">
<title>133209880419408&#45;&gt;133209880463248*</title>
<path fill="none" stroke="#666666" stroke-width="1.2" d="M821.46,-390.5C866.33,-390.5 915,-390.5 915,-390.5 915,-390.5 915,-383.32 915,-383.32"/>
<polygon fill="#666666" stroke="#666666" stroke-width="1.2" points="917.8,-383.32 915,-375.32 912.2,-383.32 917.8,-383.32"/>
</g>
<!-- 133209880419408**2 -->
<g id="node7" class="node">
<title>133209880419408**2</title>
<ellipse fill="#ff9999" stroke="#cc4444" cx="580" cy="-424" rx="18" ry="18"/>
<text text-anchor="middle" x="580" y="-421.5" font-family="Arial Bold" font-size="10.00">**2</text>
</g>
<!-- 133209880419408**2&#45;&gt;133209880419408 -->
<g id="edge3" class="edge">
<title>133209880419408**2&#45;&gt;133209880419408</title>
<path fill="none" stroke="#666666" stroke-width="1.2" d="M598.24,-424C598.24,-424 665.89,-424 665.89,-424"/>
<polygon fill="#666666" stroke="#666666" stroke-width="1.2" points="665.89,-426.8 673.89,-424 665.89,-421.2 665.89,-426.8"/>
</g>
<!-- 133209880463440 -->
<g id="node8" class="node">
<title>133209880463440</title>
<polygon fill="none" stroke="black" points="678.5,-310 678.5,-320 817.5,-320 817.5,-310 678.5,-310"/>
<polygon fill="none" stroke="black" points="678.5,-285 678.5,-310 817.5,-310 817.5,-285 678.5,-285"/>
<text text-anchor="start" x="710" y="-293.8" font-family="Arial" font-size="14.00">data: 2.0000</text>
<polygon fill="none" stroke="black" points="678.5,-260 678.5,-285 817.5,-285 817.5,-260 678.5,-260"/>
<text text-anchor="start" x="683.5" y="-268.8" font-family="Arial" font-size="14.00">grad: 25050000.0000</text>
</g>
<!-- 133209880463440&#45;&gt;133209880463248* -->
<g id="edge17" class="edge">
<title>133209880463440&#45;&gt;133209880463248*</title>
<path fill="none" stroke="#666666" stroke-width="1.2" d="M825.37,-319.75C869.11,-319.75 915,-319.75 915,-319.75 915,-319.75 915,-330.81 915,-330.81"/>
<polygon fill="#666666" stroke="#666666" stroke-width="1.2" points="912.2,-330.81 915,-338.81 917.8,-330.81 912.2,-330.81"/>
</g>
<!-- 133209880465488 -->
<g id="node9" class="node">
<title>133209880465488</title>
<polygon fill="none" stroke="black" points="1984.5,-180 1984.5,-190 2074.5,-190 2074.5,-180 1984.5,-180"/>
<polygon fill="none" stroke="black" points="1984.5,-155 1984.5,-180 2074.5,-180 2074.5,-155 1984.5,-155"/>
<text text-anchor="start" x="1989.5" y="-163.8" font-family="Arial" font-size="14.00">data: &#45;1.0000</text>
<polygon fill="none" stroke="black" points="1984.5,-130 1984.5,-155 2074.5,-155 2074.5,-130 1984.5,-130"/>
<text text-anchor="start" x="1991.5" y="-138.8" font-family="Arial" font-size="14.00">grad: 3.0000</text>
</g>
<!-- 133209877287248* -->
<g id="node21" class="node">
<title>133209877287248*</title>
<ellipse fill="#ff9999" stroke="#cc4444" cx="2193" cy="-160" rx="18" ry="18"/>
<text text-anchor="middle" x="2193" y="-157.5" font-family="Arial Bold" font-size="10.00">*</text>
</g>
<!-- 133209880465488&#45;&gt;133209877287248* -->
<g id="edge15" class="edge">
<title>133209880465488&#45;&gt;133209877287248*</title>
<path fill="none" stroke="#666666" stroke-width="1.2" d="M2082.58,-160C2082.58,-160 2166.72,-160 2166.72,-160"/>
<polygon fill="#666666" stroke="#666666" stroke-width="1.2" points="2166.72,-162.8 2174.72,-160 2166.72,-157.2 2166.72,-162.8"/>
</g>
<!-- 133209880463504 -->
<g id="node10" class="node">
<title>133209880463504</title>
<polygon fill="none" stroke="black" points="1340,-377 1340,-387 1456,-387 1456,-377 1340,-377"/>
<polygon fill="none" stroke="black" points="1340,-352 1340,-377 1456,-377 1456,-352 1340,-352"/>
<text text-anchor="start" x="1349" y="-360.8" font-family="Arial" font-size="14.00">data: 2500.0000</text>
<polygon fill="none" stroke="black" points="1340,-327 1340,-352 1456,-352 1456,-327 1340,-327"/>
<text text-anchor="start" x="1345" y="-335.8" font-family="Arial" font-size="14.00">grad: 10020.0000</text>
</g>
<!-- 133209880463568+ -->
<g id="node15" class="node">
<title>133209880463568+</title>
<ellipse fill="#ff9999" stroke="#cc4444" cx="1554" cy="-294" rx="18" ry="18"/>
<text text-anchor="middle" x="1554" y="-291.5" font-family="Arial Bold" font-size="10.00">+</text>
</g>
<!-- 133209880463504&#45;&gt;133209880463568+ -->
<g id="edge10" class="edge">
<title>133209880463504&#45;&gt;133209880463568+</title>
<path fill="none" stroke="#666666" stroke-width="1.2" d="M1464.16,-329.25C1506.68,-329.25 1554,-329.25 1554,-329.25 1554,-329.25 1554,-320.04 1554,-320.04"/>
<polygon fill="#666666" stroke="#666666" stroke-width="1.2" points="1556.8,-320.04 1554,-312.04 1551.2,-320.04 1556.8,-320.04"/>
</g>
<!-- 133209880463504**2&#45;&gt;133209880463504 -->
<g id="edge4" class="edge">
<title>133209880463504**2&#45;&gt;133209880463504</title>
<path fill="none" stroke="#666666" stroke-width="1.2" d="M1260.2,-357C1260.2,-357 1323.92,-357 1323.92,-357"/>
<polygon fill="#666666" stroke="#666666" stroke-width="1.2" points="1323.92,-359.8 1331.92,-357 1323.92,-354.2 1323.92,-359.8"/>
</g>
<!-- 133209880419472 -->
<g id="node12" class="node">
<title>133209880419472</title>
<polygon fill="none" stroke="black" points="343.5,-436 343.5,-461 482.5,-461 482.5,-436 343.5,-436"/>
<text text-anchor="start" x="409.5" y="-444.8" font-family="Arial" font-size="14.00">c</text>
<polygon fill="none" stroke="black" points="343.5,-411 343.5,-436 482.5,-436 482.5,-411 343.5,-411"/>
<text text-anchor="start" x="375" y="-419.8" font-family="Arial" font-size="14.00">data: 5.0000</text>
<polygon fill="none" stroke="black" points="343.5,-386 343.5,-411 482.5,-411 482.5,-386 343.5,-386"/>
<text text-anchor="start" x="348.5" y="-394.8" font-family="Arial" font-size="14.00">grad: 20040000.0000</text>
</g>
<!-- 133209880419472&#45;&gt;133209880419408**2 -->
<g id="edge24" class="edge">
<title>133209880419472&#45;&gt;133209880419408**2</title>
<path fill="none" stroke="#666666" stroke-width="1.2" d="M490.37,-424C490.37,-424 553.86,-424 553.86,-424"/>
<polygon fill="#666666" stroke="#666666" stroke-width="1.2" points="553.86,-426.8 561.86,-424 553.86,-421.2 553.86,-426.8"/>
</g>
<!-- 133209880419472+&#45;&gt;133209880419472 -->
<g id="edge5" class="edge">
<title>133209880419472+&#45;&gt;133209880419472</title>
<path fill="none" stroke="#666666" stroke-width="1.2" d="M263.24,-424C263.24,-424 326.61,-424 326.61,-424"/>
<polygon fill="#666666" stroke="#666666" stroke-width="1.2" points="326.61,-426.8 334.61,-424 326.61,-421.2 326.61,-426.8"/>
</g>
<!-- 133209880463568 -->
<g id="node14" class="node">
<title>133209880463568</title>
<polygon fill="none" stroke="black" points="1652,-306 1652,-331 1768,-331 1768,-306 1652,-306"/>
<text text-anchor="start" x="1708" y="-314.8" font-family="Arial" font-size="14.00">f</text>
<polygon fill="none" stroke="black" points="1652,-281 1652,-306 1768,-306 1768,-281 1652,-281"/>
<text text-anchor="start" x="1661" y="-289.8" font-family="Arial" font-size="14.00">data: 2505.0000</text>
<polygon fill="none" stroke="black" points="1652,-256 1652,-281 1768,-281 1768,-256 1652,-256"/>
<text text-anchor="start" x="1657" y="-264.8" font-family="Arial" font-size="14.00">grad: 10020.0000</text>
</g>
<!-- 133209880465296* -->
<g id="node24" class="node">
<title>133209880465296*</title>
<ellipse fill="#ff9999" stroke="#cc4444" cx="1866" cy="-294" rx="18" ry="18"/>
<text text-anchor="middle" x="1866" y="-291.5" font-family="Arial Bold" font-size="10.00">*</text>
</g>
<!-- 133209880463568&#45;&gt;133209880465296* -->
<g id="edge16" class="edge">
<title>133209880463568&#45;&gt;133209880465296*</title>
<path fill="none" stroke="#666666" stroke-width="1.2" d="M1776.16,-294C1776.16,-294 1839.78,-294 1839.78,-294"/>
<polygon fill="#666666" stroke="#666666" stroke-width="1.2" points="1839.78,-296.8 1847.78,-294 1839.78,-291.2 1839.78,-296.8"/>
</g>
<!-- 133209880463568+&#45;&gt;133209880463568 -->
<g id="edge6" class="edge">
<title>133209880463568+&#45;&gt;133209880463568</title>
<path fill="none" stroke="#666666" stroke-width="1.2" d="M1572.2,-294C1572.2,-294 1635.92,-294 1635.92,-294"/>
<polygon fill="#666666" stroke="#666666" stroke-width="1.2" points="1635.92,-296.8 1643.92,-294 1635.92,-291.2 1635.92,-296.8"/>
</g>
<!-- 133209880468688 -->
<g id="node16" class="node">
<title>133209880468688</title>
<polygon fill="none" stroke="black" points="1964.5,-448 1964.5,-458 2095.5,-458 2095.5,-448 1964.5,-448"/>
<polygon fill="none" stroke="black" points="1964.5,-423 1964.5,-448 2095.5,-448 2095.5,-423 1964.5,-423"/>
<text text-anchor="start" x="1992" y="-431.8" font-family="Arial" font-size="14.00">data: 2.0000</text>
<polygon fill="none" stroke="black" points="1964.5,-398 1964.5,-423 2095.5,-423 2095.5,-398 1964.5,-398"/>
<text text-anchor="start" x="1969.5" y="-406.8" font-family="Arial" font-size="14.00">grad: 6275025.0000</text>
</g>
<!-- 133209880470288* -->
<g id="node18" class="node">
<title>133209880470288*</title>
<ellipse fill="#ff9999" stroke="#cc4444" cx="2193" cy="-294" rx="18" ry="18"/>
<text text-anchor="middle" x="2193" y="-291.5" font-family="Arial Bold" font-size="10.00">*</text>
</g>
<!-- 133209880468688&#45;&gt;133209880470288* -->
<g id="edge18" class="edge">
<title>133209880468688&#45;&gt;133209880470288*</title>
<path fill="none" stroke="#666666" stroke-width="1.2" d="M2103.12,-428C2146.52,-428 2193,-428 2193,-428 2193,-428 2193,-320.07 2193,-320.07"/>
<polygon fill="#666666" stroke="#666666" stroke-width="1.2" points="2195.8,-320.07 2193,-312.07 2190.2,-320.07 2195.8,-320.07"/>
</g>
<!-- 133209880470288 -->
<g id="node17" class="node">
<title>133209880470288</title>
<polygon fill="none" stroke="black" points="2291,-312 2291,-322 2429,-322 2429,-312 2291,-312"/>
<polygon fill="none" stroke="black" points="2291,-287 2291,-312 2429,-312 2429,-287 2291,-287"/>
<text text-anchor="start" x="2296" y="-295.8" font-family="Arial" font-size="14.00">data: 12550050.0000</text>
<polygon fill="none" stroke="black" points="2291,-262 2291,-287 2429,-287 2429,-262 2291,-262"/>
<text text-anchor="start" x="2322" y="-270.8" font-family="Arial" font-size="14.00">grad: 1.0000</text>
</g>
<!-- 133209880470288&#45;&gt;133209877287440+ -->
<g id="edge20" class="edge">
<title>133209880470288&#45;&gt;133209877287440+</title>
<path fill="none" stroke="#666666" stroke-width="1.2" d="M2437.15,-262.25C2480.9,-262.25 2527,-262.25 2527,-262.25 2527,-262.25 2527,-251.19 2527,-251.19"/>
<polygon fill="#666666" stroke="#666666" stroke-width="1.2" points="2529.8,-251.19 2527,-243.19 2524.2,-251.19 2529.8,-251.19"/>
</g>
<!-- 133209880470288*&#45;&gt;133209880470288 -->
<g id="edge7" class="edge">
<title>133209880470288*&#45;&gt;133209880470288</title>
<path fill="none" stroke="#666666" stroke-width="1.2" d="M2211.19,-294C2211.19,-294 2274.73,-294 2274.73,-294"/>
<polygon fill="#666666" stroke="#666666" stroke-width="1.2" points="2274.73,-296.8 2282.73,-294 2274.73,-291.2 2274.73,-296.8"/>
</g>
<!-- 133209880463632 -->
<g id="node19" class="node">
<title>133209880463632</title>
<polygon fill="none" stroke="black" points="1340,-251 1340,-261 1456,-261 1456,-251 1340,-251"/>
<polygon fill="none" stroke="black" points="1340,-226 1340,-251 1456,-251 1456,-226 1340,-226"/>
<text text-anchor="start" x="1360" y="-234.8" font-family="Arial" font-size="14.00">data: 5.0000</text>
<polygon fill="none" stroke="black" points="1340,-201 1340,-226 1456,-226 1456,-201 1340,-201"/>
<text text-anchor="start" x="1345" y="-209.8" font-family="Arial" font-size="14.00">grad: 10020.0000</text>
</g>
<!-- 133209880463632&#45;&gt;133209880463568+ -->
<g id="edge21" class="edge">
<title>133209880463632&#45;&gt;133209880463568+</title>
<path fill="none" stroke="#666666" stroke-width="1.2" d="M1464.16,-258.75C1506.68,-258.75 1554,-258.75 1554,-258.75 1554,-258.75 1554,-267.96 1554,-267.96"/>
<polygon fill="#666666" stroke="#666666" stroke-width="1.2" points="1551.2,-267.96 1554,-275.96 1556.8,-267.96 1551.2,-267.96"/>
</g>
<!-- 133209877287248 -->
<g id="node20" class="node">
<title>133209877287248</title>
<polygon fill="none" stroke="black" points="2315,-182 2315,-192 2405,-192 2405,-182 2315,-182"/>
<polygon fill="none" stroke="black" points="2315,-157 2315,-182 2405,-182 2405,-157 2315,-157"/>
<text text-anchor="start" x="2320" y="-165.8" font-family="Arial" font-size="14.00">data: &#45;3.0000</text>
<polygon fill="none" stroke="black" points="2315,-132 2315,-157 2405,-157 2405,-132 2315,-132"/>
<text text-anchor="start" x="2322" y="-140.8" font-family="Arial" font-size="14.00">grad: 1.0000</text>
</g>
<!-- 133209877287248&#45;&gt;133209877287440+ -->
<g id="edge19" class="edge">
<title>133209877287248&#45;&gt;133209877287440+</title>
<path fill="none" stroke="#666666" stroke-width="1.2" d="M2413.3,-189.75C2462.17,-189.75 2527,-189.75 2527,-189.75 2527,-189.75 2527,-198.96 2527,-198.96"/>
<polygon fill="#666666" stroke="#666666" stroke-width="1.2" points="2524.2,-198.96 2527,-206.96 2529.8,-198.96 2524.2,-198.96"/>
</g>
<!-- 133209877287248*&#45;&gt;133209877287248 -->
<g id="edge8" class="edge">
<title>133209877287248*&#45;&gt;133209877287248</title>
<path fill="none" stroke="#666666" stroke-width="1.2" d="M2211.19,-160C2211.19,-160 2298.99,-160 2298.99,-160"/>
<polygon fill="#666666" stroke="#666666" stroke-width="1.2" points="2298.99,-162.8 2306.99,-160 2298.99,-157.2 2298.99,-162.8"/>
</g>
<!-- 133209880468816 -->
<g id="node22" class="node">
<title>133209880468816</title>
<polygon fill="none" stroke="black" points="1984.5,-54 1984.5,-64 2075.5,-64 2075.5,-54 1984.5,-54"/>
<polygon fill="none" stroke="black" points="1984.5,-29 1984.5,-54 2075.5,-54 2075.5,-29 1984.5,-29"/>
<text text-anchor="start" x="1992" y="-37.8" font-family="Arial" font-size="14.00">data: 3.0000</text>
<polygon fill="none" stroke="black" points="1984.5,-4 1984.5,-29 2075.5,-29 2075.5,-4 1984.5,-4"/>
<text text-anchor="start" x="1989.5" y="-12.8" font-family="Arial" font-size="14.00">grad: &#45;1.0000</text>
</g>
<!-- 133209880468816&#45;&gt;133209877287248* -->
<g id="edge23" class="edge">
<title>133209880468816&#45;&gt;133209877287248*</title>
<path fill="none" stroke="#666666" stroke-width="1.2" d="M2083.04,-34C2130.72,-34 2193,-34 2193,-34 2193,-34 2193,-133.95 2193,-133.95"/>
<polygon fill="#666666" stroke="#666666" stroke-width="1.2" points="2190.2,-133.95 2193,-141.95 2195.8,-133.95 2190.2,-133.95"/>
</g>
<!-- 133209880465296 -->
<g id="node23" class="node">
<title>133209880465296</title>
<polygon fill="none" stroke="black" points="1964.5,-306 1964.5,-331 2095.5,-331 2095.5,-306 1964.5,-306"/>
<text text-anchor="start" x="2026" y="-314.8" font-family="Arial" font-size="14.00">g</text>
<polygon fill="none" stroke="black" points="1964.5,-281 1964.5,-306 2095.5,-306 2095.5,-281 1964.5,-281"/>
<text text-anchor="start" x="1969.5" y="-289.8" font-family="Arial" font-size="14.00">data: 6275025.0000</text>
<polygon fill="none" stroke="black" points="1964.5,-256 1964.5,-281 2095.5,-281 2095.5,-256 1964.5,-256"/>
<text text-anchor="start" x="1992" y="-264.8" font-family="Arial" font-size="14.00">grad: 2.0000</text>
</g>
<!-- 133209880465296&#45;&gt;133209880470288* -->
<g id="edge13" class="edge">
<title>133209880465296&#45;&gt;133209880470288*</title>
<path fill="none" stroke="#666666" stroke-width="1.2" d="M2103.12,-294C2103.12,-294 2166.68,-294 2166.68,-294"/>
<polygon fill="#666666" stroke="#666666" stroke-width="1.2" points="2166.68,-296.8 2174.68,-294 2166.68,-291.2 2166.68,-296.8"/>
</g>
<!-- 133209880465296*&#45;&gt;133209880465296 -->
<g id="edge9" class="edge">
<title>133209880465296*&#45;&gt;133209880465296</title>
<path fill="none" stroke="#666666" stroke-width="1.2" d="M1884.12,-294C1884.12,-294 1947.65,-294 1947.65,-294"/>
<polygon fill="#666666" stroke="#666666" stroke-width="1.2" points="1947.65,-296.8 1955.65,-294 1947.65,-291.2 1947.65,-296.8"/>
</g>
<!-- 133209880419280 -->
<g id="node25" class="node">
<title>133209880419280</title>
<polygon fill="none" stroke="black" points="8.5,-366 8.5,-391 147.5,-391 147.5,-366 8.5,-366"/>
<text text-anchor="start" x="74" y="-374.8" font-family="Arial" font-size="14.00">b</text>
<polygon fill="none" stroke="black" points="8.5,-341 8.5,-366 147.5,-366 147.5,-341 8.5,-341"/>
<text text-anchor="start" x="40" y="-349.8" font-family="Arial" font-size="14.00">data: 3.0000</text>
<polygon fill="none" stroke="black" points="8.5,-316 8.5,-341 147.5,-341 147.5,-316 8.5,-316"/>
<text text-anchor="start" x="13.5" y="-324.8" font-family="Arial" font-size="14.00">grad: 20040000.0000</text>
</g>
<!-- 133209880419280&#45;&gt;133209880419472+ -->
<g id="edge12" class="edge">
<title>133209880419280&#45;&gt;133209880419472+</title>
<path fill="none" stroke="#666666" stroke-width="1.2" d="M155.37,-389C199.11,-389 245,-389 245,-389 245,-389 245,-397.68 245,-397.68"/>
<polygon fill="#666666" stroke="#666666" stroke-width="1.2" points="242.2,-397.68 245,-405.68 247.8,-397.68 242.2,-397.68"/>
</g>
</g>
</svg>
