<?xml version="1.0" encoding="UTF-8" standalone="no"?>
<!DOCTYPE svg PUBLIC "-//W3C//DTD SVG 1.1//EN"
 "http://www.w3.org/Graphics/SVG/1.1/DTD/svg11.dtd">
<!-- Generated by graphviz version 2.50.0 (0)
 -->
<!-- Pages: 1 -->
<svg width="2101pt" height="271pt"
 viewBox="7.20 7.20 2093.68 264.20" xmlns="http://www.w3.org/2000/svg" xmlns:xlink="http://www.w3.org/1999/xlink">
<g id="graph0" class="graph" transform="scale(1 1) rotate(0) translate(11.2 260.2)">
<polygon fill="white" stroke="transparent" points="-4,4 -4,-253 2082.48,-253 2082.48,4 -4,4"/>
<!-- 131828537829392 -->
<g id="node1" class="node">
<title>131828537829392</title>
<polygon fill="none" stroke="black" points="1241.09,-94.5 1241.09,-130.5 1461.09,-130.5 1461.09,-94.5 1241.09,-94.5"/>
<text text-anchor="middle" x="1294.59" y="-108.8" font-family="Times,serif" font-size="14.00">data: 0.8300</text>
<polyline fill="none" stroke="black" points="1348.09,-94.5 1348.09,-130.5 "/>
<text text-anchor="middle" x="1404.59" y="-108.8" font-family="Times,serif" font-size="14.00">grad: &#45;0.3400</text>
</g>
<!-- 131828537829776+ -->
<g id="node21" class="node">
<title>131828537829776+</title>
<ellipse fill="none" stroke="black" cx="1503.94" cy="-141.5" rx="18.7" ry="18.7"/>
<text text-anchor="middle" x="1503.94" y="-137.8" font-family="Times,serif" font-size="14.00">+</text>
</g>
<!-- 131828537829392&#45;&gt;131828537829776+ -->
<g id="edge17" class="edge">
<title>131828537829392&#45;&gt;131828537829776+</title>
<path fill="none" stroke="black" d="M1445.91,-130.54C1456.35,-132.54 1466.3,-134.46 1474.87,-136.11"/>
<polygon fill="black" stroke="black" points="1474.46,-139.59 1484.94,-138.04 1475.78,-132.71 1474.46,-139.59"/>
</g>
<!-- 131828537829392tanh -->
<g id="node2" class="node">
<title>131828537829392tanh</title>
<ellipse fill="none" stroke="black" cx="1185.24" cy="-106.5" rx="31.7" ry="31.7"/>
<text text-anchor="middle" x="1185.24" y="-102.8" font-family="Times,serif" font-size="14.00">tanh</text>
</g>
<!-- 131828537829392tanh&#45;&gt;131828537829392 -->
<g id="edge1" class="edge">
<title>131828537829392tanh&#45;&gt;131828537829392</title>
<path fill="none" stroke="black" d="M1217.44,-107.64C1221.69,-107.8 1226.23,-107.96 1230.99,-108.14"/>
<polygon fill="black" stroke="black" points="1230.9,-111.64 1241.02,-108.51 1231.16,-104.64 1230.9,-111.64"/>
</g>
<!-- 131828537828368 -->
<g id="node3" class="node">
<title>131828537828368</title>
<polygon fill="none" stroke="black" points="300,-177.5 300,-213.5 520,-213.5 520,-177.5 300,-177.5"/>
<text text-anchor="middle" x="353.5" y="-191.8" font-family="Times,serif" font-size="14.00">data: 0.6102</text>
<polyline fill="none" stroke="black" points="407,-177.5 407,-213.5 "/>
<text text-anchor="middle" x="463.5" y="-191.8" font-family="Times,serif" font-size="14.00">grad: &#45;0.1058</text>
</g>
<!-- 131828537829072+ -->
<g id="node13" class="node">
<title>131828537829072+</title>
<ellipse fill="none" stroke="black" cx="560.85" cy="-136.5" rx="18.7" ry="18.7"/>
<text text-anchor="middle" x="560.85" y="-132.8" font-family="Times,serif" font-size="14.00">+</text>
</g>
<!-- 131828537828368&#45;&gt;131828537829072+ -->
<g id="edge15" class="edge">
<title>131828537828368&#45;&gt;131828537829072+</title>
<path fill="none" stroke="black" d="M492.91,-177.42C502.24,-174.27 511.46,-170.65 520,-166.5 526.23,-163.47 532.47,-159.4 538.09,-155.24"/>
<polygon fill="black" stroke="black" points="540.63,-157.69 546.33,-148.76 536.31,-152.18 540.63,-157.69"/>
</g>
<!-- 131828537828880 -->
<g id="node4" class="node">
<title>131828537828880</title>
<polygon fill="none" stroke="black" points="302.5,-59.5 302.5,-95.5 517.5,-95.5 517.5,-59.5 302.5,-59.5"/>
<text text-anchor="middle" x="356" y="-73.8" font-family="Times,serif" font-size="14.00">data: 0.0000</text>
<polyline fill="none" stroke="black" points="409.5,-59.5 409.5,-95.5 "/>
<text text-anchor="middle" x="463.5" y="-73.8" font-family="Times,serif" font-size="14.00">grad: 0.0319</text>
</g>
<!-- 131828537829200* -->
<g id="node19" class="node">
<title>131828537829200*</title>
<ellipse fill="none" stroke="black" cx="560.85" cy="-77.5" rx="18" ry="18"/>
<text text-anchor="middle" x="560.85" y="-73.8" font-family="Times,serif" font-size="14.00">*</text>
</g>
<!-- 131828537828880&#45;&gt;131828537829200* -->
<g id="edge13" class="edge">
<title>131828537828880&#45;&gt;131828537829200*</title>
<path fill="none" stroke="black" d="M517.59,-77.5C522.94,-77.5 528.01,-77.5 532.67,-77.5"/>
<polygon fill="black" stroke="black" points="532.69,-81 542.69,-77.5 532.69,-74 532.69,-81"/>
</g>
<!-- 131828537828304 -->
<g id="node5" class="node">
<title>131828537828304</title>
<polygon fill="none" stroke="black" points="300.5,-0.5 300.5,-36.5 519.5,-36.5 519.5,-0.5 300.5,-0.5"/>
<text text-anchor="middle" x="356" y="-14.8" font-family="Times,serif" font-size="14.00">data: &#45;0.3018</text>
<polyline fill="none" stroke="black" points="411.5,-0.5 411.5,-36.5 "/>
<text text-anchor="middle" x="465.5" y="-14.8" font-family="Times,serif" font-size="14.00">grad: 0.0000</text>
</g>
<!-- 131828537828304&#45;&gt;131828537829200* -->
<g id="edge10" class="edge">
<title>131828537828304&#45;&gt;131828537829200*</title>
<path fill="none" stroke="black" d="M492.91,-36.58C502.24,-39.73 511.46,-43.35 520,-47.5 526.59,-50.71 533.18,-55.07 539.05,-59.48"/>
<polygon fill="black" stroke="black" points="537.04,-62.36 547.05,-65.84 541.4,-56.88 537.04,-62.36"/>
</g>
<!-- 131828537829968 -->
<g id="node6" class="node">
<title>131828537829968</title>
<polygon fill="none" stroke="black" points="1863.48,-123.5 1863.48,-159.5 2078.48,-159.5 2078.48,-123.5 1863.48,-123.5"/>
<text text-anchor="middle" x="1916.98" y="-137.8" font-family="Times,serif" font-size="14.00">data: 0.0289</text>
<polyline fill="none" stroke="black" points="1970.48,-123.5 1970.48,-159.5 "/>
<text text-anchor="middle" x="2024.48" y="-137.8" font-family="Times,serif" font-size="14.00">grad: 1.0000</text>
</g>
<!-- 131828537829968**2 -->
<g id="node7" class="node">
<title>131828537829968**2</title>
<ellipse fill="none" stroke="black" cx="1816.13" cy="-141.5" rx="25.2" ry="25.2"/>
<text text-anchor="middle" x="1816.13" y="-137.8" font-family="Times,serif" font-size="14.00">**2</text>
</g>
<!-- 131828537829968**2&#45;&gt;131828537829968 -->
<g id="edge2" class="edge">
<title>131828537829968**2&#45;&gt;131828537829968</title>
<path fill="none" stroke="black" d="M1841.69,-141.5C1845.2,-141.5 1848.98,-141.5 1852.97,-141.5"/>
<polygon fill="black" stroke="black" points="1853.28,-145 1863.28,-141.5 1853.28,-138 1853.28,-145"/>
</g>
<!-- 131828537829456 -->
<g id="node8" class="node">
<title>131828537829456</title>
<polygon fill="none" stroke="black" points="911.89,-212.5 911.89,-248.5 1126.89,-248.5 1126.89,-212.5 911.89,-212.5"/>
<text text-anchor="middle" x="965.39" y="-226.8" font-family="Times,serif" font-size="14.00">data: 1.0000</text>
<polyline fill="none" stroke="black" points="1018.89,-212.5 1018.89,-248.5 "/>
<text text-anchor="middle" x="1072.89" y="-226.8" font-family="Times,serif" font-size="14.00">grad: 0.3400</text>
</g>
<!-- 131828537829648* -->
<g id="node17" class="node">
<title>131828537829648*</title>
<ellipse fill="none" stroke="black" cx="1185.24" cy="-178.5" rx="18" ry="18"/>
<text text-anchor="middle" x="1185.24" y="-174.8" font-family="Times,serif" font-size="14.00">*</text>
</g>
<!-- 131828537829456&#45;&gt;131828537829648* -->
<g id="edge14" class="edge">
<title>131828537829456&#45;&gt;131828537829648*</title>
<path fill="none" stroke="black" d="M1095.8,-212.49C1107.8,-209.14 1120.01,-205.44 1131.39,-201.5 1140.74,-198.27 1150.74,-194.1 1159.5,-190.21"/>
<polygon fill="black" stroke="black" points="1161.12,-193.32 1168.77,-185.99 1158.22,-186.95 1161.12,-193.32"/>
</g>
<!-- 131828537829008 -->
<g id="node9" class="node">
<title>131828537829008</title>
<polygon fill="none" stroke="black" points="300,-118.5 300,-154.5 520,-154.5 520,-118.5 300,-118.5"/>
<text text-anchor="middle" x="353.5" y="-132.8" font-family="Times,serif" font-size="14.00">data: 0.5779</text>
<polyline fill="none" stroke="black" points="407,-118.5 407,-154.5 "/>
<text text-anchor="middle" x="463.5" y="-132.8" font-family="Times,serif" font-size="14.00">grad: &#45;0.1058</text>
</g>
<!-- 131828537829008&#45;&gt;131828537829072+ -->
<g id="edge19" class="edge">
<title>131828537829008&#45;&gt;131828537829072+</title>
<path fill="none" stroke="black" d="M520.35,-136.5C524.39,-136.5 528.26,-136.5 531.88,-136.5"/>
<polygon fill="black" stroke="black" points="531.94,-140 541.94,-136.5 531.94,-133 531.94,-140"/>
</g>
<!-- 131828537829008* -->
<g id="node10" class="node">
<title>131828537829008*</title>
<ellipse fill="none" stroke="black" cx="260" cy="-136.5" rx="18" ry="18"/>
<text text-anchor="middle" x="260" y="-132.8" font-family="Times,serif" font-size="14.00">*</text>
</g>
<!-- 131828537829008*&#45;&gt;131828537829008 -->
<g id="edge3" class="edge">
<title>131828537829008*&#45;&gt;131828537829008</title>
<path fill="none" stroke="black" d="M278.27,-136.5C281.7,-136.5 285.54,-136.5 289.68,-136.5"/>
<polygon fill="black" stroke="black" points="289.87,-140 299.87,-136.5 289.87,-133 289.87,-140"/>
</g>
<!-- 131828537829520 -->
<g id="node11" class="node">
<title>131828537829520</title>
<polygon fill="none" stroke="black" points="907.39,-153.5 907.39,-189.5 1131.39,-189.5 1131.39,-153.5 907.39,-153.5"/>
<text text-anchor="middle" x="962.89" y="-167.8" font-family="Times,serif" font-size="14.00">data: &#45;1.0000</text>
<polyline fill="none" stroke="black" points="1018.39,-153.5 1018.39,-189.5 "/>
<text text-anchor="middle" x="1074.89" y="-167.8" font-family="Times,serif" font-size="14.00">grad: &#45;0.3400</text>
</g>
<!-- 131828537829520&#45;&gt;131828537829648* -->
<g id="edge12" class="edge">
<title>131828537829520&#45;&gt;131828537829648*</title>
<path fill="none" stroke="black" d="M1131.5,-176.25C1140.7,-176.64 1149.34,-177.01 1156.85,-177.33"/>
<polygon fill="black" stroke="black" points="1156.86,-180.83 1167,-177.76 1157.15,-173.84 1156.86,-180.83"/>
</g>
<!-- 131828537829072 -->
<g id="node12" class="node">
<title>131828537829072</title>
<polygon fill="none" stroke="black" points="603.7,-118.5 603.7,-154.5 823.7,-154.5 823.7,-118.5 603.7,-118.5"/>
<text text-anchor="middle" x="657.2" y="-132.8" font-family="Times,serif" font-size="14.00">data: 1.1881</text>
<polyline fill="none" stroke="black" points="710.7,-118.5 710.7,-154.5 "/>
<text text-anchor="middle" x="767.2" y="-132.8" font-family="Times,serif" font-size="14.00">grad: &#45;0.1058</text>
</g>
<!-- 131828537829328+ -->
<g id="node23" class="node">
<title>131828537829328+</title>
<ellipse fill="none" stroke="black" cx="866.54" cy="-106.5" rx="18.7" ry="18.7"/>
<text text-anchor="middle" x="866.54" y="-102.8" font-family="Times,serif" font-size="14.00">+</text>
</g>
<!-- 131828537829072&#45;&gt;131828537829328+ -->
<g id="edge9" class="edge">
<title>131828537829072&#45;&gt;131828537829328+</title>
<path fill="none" stroke="black" d="M805.49,-118.44C817.28,-116.1 828.54,-113.86 838.07,-111.96"/>
<polygon fill="black" stroke="black" points="838.89,-115.37 848.01,-109.99 837.52,-108.5 838.89,-115.37"/>
</g>
<!-- 131828537829072+&#45;&gt;131828537829072 -->
<g id="edge4" class="edge">
<title>131828537829072+&#45;&gt;131828537829072</title>
<path fill="none" stroke="black" d="M579.74,-136.5C583.83,-136.5 588.48,-136.5 593.53,-136.5"/>
<polygon fill="black" stroke="black" points="593.68,-140 603.68,-136.5 593.68,-133 593.68,-140"/>
</g>
<!-- 131828537828240 -->
<g id="node14" class="node">
<title>131828537828240</title>
<polygon fill="none" stroke="black" points="0,-148.5 0,-184.5 220,-184.5 220,-148.5 0,-148.5"/>
<text text-anchor="middle" x="53.5" y="-162.8" font-family="Times,serif" font-size="14.00">data: 0.2890</text>
<polyline fill="none" stroke="black" points="107,-148.5 107,-184.5 "/>
<text text-anchor="middle" x="163.5" y="-162.8" font-family="Times,serif" font-size="14.00">grad: &#45;0.2116</text>
</g>
<!-- 131828537828240&#45;&gt;131828537829008* -->
<g id="edge21" class="edge">
<title>131828537828240&#45;&gt;131828537829008*</title>
<path fill="none" stroke="black" d="M200.08,-148.44C211.82,-146.06 223.04,-143.79 232.47,-141.88"/>
<polygon fill="black" stroke="black" points="233.19,-145.3 242.3,-139.89 231.8,-138.44 233.19,-145.3"/>
</g>
<!-- 131828538325264 -->
<g id="node15" class="node">
<title>131828538325264</title>
<polygon fill="none" stroke="black" points="0,-89.5 0,-125.5 220,-125.5 220,-89.5 0,-89.5"/>
<text text-anchor="middle" x="53.5" y="-103.8" font-family="Times,serif" font-size="14.00">data: 2.0000</text>
<polyline fill="none" stroke="black" points="107,-89.5 107,-125.5 "/>
<text text-anchor="middle" x="163.5" y="-103.8" font-family="Times,serif" font-size="14.00">grad: &#45;0.0306</text>
</g>
<!-- 131828538325264&#45;&gt;131828537829008* -->
<g id="edge22" class="edge">
<title>131828538325264&#45;&gt;131828537829008*</title>
<path fill="none" stroke="black" d="M203.05,-125.54C213.46,-127.58 223.37,-129.52 231.87,-131.18"/>
<polygon fill="black" stroke="black" points="231.34,-134.65 241.83,-133.14 232.69,-127.78 231.34,-134.65"/>
</g>
<!-- 131828537829648 -->
<g id="node16" class="node">
<title>131828537829648</title>
<polygon fill="none" stroke="black" points="1239.09,-156.5 1239.09,-192.5 1463.09,-192.5 1463.09,-156.5 1239.09,-156.5"/>
<text text-anchor="middle" x="1294.59" y="-170.8" font-family="Times,serif" font-size="14.00">data: &#45;1.0000</text>
<polyline fill="none" stroke="black" points="1350.09,-156.5 1350.09,-192.5 "/>
<text text-anchor="middle" x="1406.59" y="-170.8" font-family="Times,serif" font-size="14.00">grad: &#45;0.3400</text>
</g>
<!-- 131828537829648&#45;&gt;131828537829776+ -->
<g id="edge16" class="edge">
<title>131828537829648&#45;&gt;131828537829776+</title>
<path fill="none" stroke="black" d="M1434.57,-156.46C1449.32,-153.23 1463.7,-150.08 1475.44,-147.52"/>
<polygon fill="black" stroke="black" points="1476.39,-150.89 1485.41,-145.33 1474.89,-144.05 1476.39,-150.89"/>
</g>
<!-- 131828537829648*&#45;&gt;131828537829648 -->
<g id="edge5" class="edge">
<title>131828537829648*&#45;&gt;131828537829648</title>
<path fill="none" stroke="black" d="M1203.47,-178.08C1210.49,-177.91 1219.26,-177.69 1228.99,-177.46"/>
<polygon fill="black" stroke="black" points="1229.1,-180.95 1239.01,-177.21 1228.93,-173.96 1229.1,-180.95"/>
</g>
<!-- 131828537829200 -->
<g id="node18" class="node">
<title>131828537829200</title>
<polygon fill="none" stroke="black" points="601.7,-59.5 601.7,-95.5 825.7,-95.5 825.7,-59.5 601.7,-59.5"/>
<text text-anchor="middle" x="657.2" y="-73.8" font-family="Times,serif" font-size="14.00">data: &#45;0.0000</text>
<polyline fill="none" stroke="black" points="712.7,-59.5 712.7,-95.5 "/>
<text text-anchor="middle" x="769.2" y="-73.8" font-family="Times,serif" font-size="14.00">grad: &#45;0.1058</text>
</g>
<!-- 131828537829200&#45;&gt;131828537829328+ -->
<g id="edge20" class="edge">
<title>131828537829200&#45;&gt;131828537829328+</title>
<path fill="none" stroke="black" d="M808.52,-95.54C818.96,-97.54 828.91,-99.46 837.48,-101.11"/>
<polygon fill="black" stroke="black" points="837.06,-104.59 847.55,-103.04 838.39,-97.71 837.06,-104.59"/>
</g>
<!-- 131828537829200*&#45;&gt;131828537829200 -->
<g id="edge6" class="edge">
<title>131828537829200*&#45;&gt;131828537829200</title>
<path fill="none" stroke="black" d="M578.86,-77.5C582.51,-77.5 586.64,-77.5 591.11,-77.5"/>
<polygon fill="black" stroke="black" points="591.43,-81 601.43,-77.5 591.43,-74 591.43,-81"/>
</g>
<!-- 131828537829776 -->
<g id="node20" class="node">
<title>131828537829776</title>
<polygon fill="none" stroke="black" points="1544.78,-123.5 1544.78,-159.5 1768.78,-159.5 1768.78,-123.5 1544.78,-123.5"/>
<text text-anchor="middle" x="1600.28" y="-137.8" font-family="Times,serif" font-size="14.00">data: &#45;0.1700</text>
<polyline fill="none" stroke="black" points="1655.78,-123.5 1655.78,-159.5 "/>
<text text-anchor="middle" x="1712.28" y="-137.8" font-family="Times,serif" font-size="14.00">grad: &#45;0.3400</text>
</g>
<!-- 131828537829776&#45;&gt;131828537829968**2 -->
<g id="edge11" class="edge">
<title>131828537829776&#45;&gt;131828537829968**2</title>
<path fill="none" stroke="black" d="M1769.2,-141.5C1773.03,-141.5 1776.74,-141.5 1780.28,-141.5"/>
<polygon fill="black" stroke="black" points="1780.31,-145 1790.31,-141.5 1780.31,-138 1780.31,-145"/>
</g>
<!-- 131828537829776+&#45;&gt;131828537829776 -->
<g id="edge7" class="edge">
<title>131828537829776+&#45;&gt;131828537829776</title>
<path fill="none" stroke="black" d="M1522.83,-141.5C1526.3,-141.5 1530.17,-141.5 1534.34,-141.5"/>
<polygon fill="black" stroke="black" points="1534.58,-145 1544.58,-141.5 1534.58,-138 1534.58,-145"/>
</g>
<!-- 131828537829328 -->
<g id="node22" class="node">
<title>131828537829328</title>
<polygon fill="none" stroke="black" points="909.39,-88.5 909.39,-124.5 1129.39,-124.5 1129.39,-88.5 909.39,-88.5"/>
<text text-anchor="middle" x="962.89" y="-102.8" font-family="Times,serif" font-size="14.00">data: 1.1881</text>
<polyline fill="none" stroke="black" points="1016.39,-88.5 1016.39,-124.5 "/>
<text text-anchor="middle" x="1072.89" y="-102.8" font-family="Times,serif" font-size="14.00">grad: &#45;0.1058</text>
</g>
<!-- 131828537829328&#45;&gt;131828537829392tanh -->
<g id="edge18" class="edge">
<title>131828537829328&#45;&gt;131828537829392tanh</title>
<path fill="none" stroke="black" d="M1129.68,-106.5C1134.3,-106.5 1138.8,-106.5 1143.09,-106.5"/>
<polygon fill="black" stroke="black" points="1143.3,-110 1153.3,-106.5 1143.3,-103 1143.3,-110"/>
</g>
<!-- 131828537829328+&#45;&gt;131828537829328 -->
<g id="edge8" class="edge">
<title>131828537829328+&#45;&gt;131828537829328</title>
<path fill="none" stroke="black" d="M885.44,-106.5C889.53,-106.5 894.18,-106.5 899.22,-106.5"/>
<polygon fill="black" stroke="black" points="899.37,-110 909.37,-106.5 899.37,-103 899.37,-110"/>
</g>
</g>
</svg>
